<svg width="18" height="18" viewBox="0 0 18 18" fill="none" xmlns="http://www.w3.org/2000/svg">
<path d="M2 18C1.45 18 0.979333 17.8043 0.588 17.413C0.196667 17.0217 0.000666667 16.5507 0 16V2C0 1.45 0.196 0.979333 0.588 0.588C0.98 0.196667 1.45067 0.000666667 2 0H13.175C13.4417 0 13.696 0.0500001 13.938 0.15C14.18 0.25 14.3923 0.391667 14.575 0.575L17.425 3.425C17.6083 3.60833 17.75 3.821 17.85 4.063C17.95 4.305 18 4.559 18 4.825V16C18 16.55 17.8043 17.021 17.413 17.413C17.0217 17.805 16.5507 18.0007 16 18H2ZM16 4.85L13.15 2H2V16H16V4.85ZM9 15C9.83333 15 10.5417 14.7083 11.125 14.125C11.7083 13.5417 12 12.8333 12 12C12 11.1667 11.7083 10.4583 11.125 9.875C10.5417 9.29167 9.83333 9 9 9C8.16667 9 7.45833 9.29167 6.875 9.875C6.29167 10.4583 6 11.1667 6 12C6 12.8333 6.29167 13.5417 6.875 14.125C7.45833 14.7083 8.16667 15 9 15ZM4 7H11C11.2833 7 11.521 6.904 11.713 6.712C11.905 6.52 12.0007 6.28267 12 6V4C12 3.71667 11.904 3.47933 11.712 3.288C11.52 3.09667 11.2827 3.00067 11 3H4C3.71667 3 3.47933 3.096 3.288 3.288C3.09667 3.48 3.00067 3.71733 3 4V6C3 6.28333 3.096 6.521 3.288 6.713C3.48 6.905 3.71733 7.00067 4 7ZM2 4.85V16V2V4.85Z" fill="white"/>
</svg>
